# xmcd
#
# Track frame offsets:
#	150
#	14044
#	23471
#	36222
#	47921
#	59083
#	71246
#	83238
#	95094
#	110460
#	121678
#	133798
#	142304
#	154575
#	165552
#	171654
#
# Disc length: 2430 seconds
#
# Revision: 0
# Processed by: cddbd v1.5.2PL0 Copyright (c) Steve Scherf et al.
# Submitted via: audiograbber 1.83.01
#
DISCID=eb097c10
DTITLE=Various Artist - The Best Of Country And West
DYEAR=1967
DGENRE=Country
TTITLE0=Charley Pride - Detroit City 
TTITLE1=Chet Atkins - Freight Train
TTITLE2=Hank Snow - Golden Rocket
TTITLE3=Connie Smith - In My Baby's Arms Again
TTITLE4=Waylon Jennings - Anita, You're Dreaming 
TTITLE5=George Hamilton IV - Steel Rail Blues
TTITLE6=Skeeter Davis - The End Of The World
TTITLE7=Stu Phillips - Bracero
TTITLE8=Jim Reeves - Blue Side Of Lonesome
TTITLE9=Norma Jean - You're Driving Me Out My Mind 
TTITLE10=Bobby Bare - The Streets Of Baltimore
TTITLE11=Floyd Cramer - Hey Good Lookin' 
TTITLE12=The Sons Of The Pioneers - Tumbleweeds 	
TTITLE13=Dottie West - Suffer Time 
TTITLE14=Hank Locklin - Please Help Me I'm Falling
TTITLE15=Porter Wagoner - Green, Green Grass Of Home 
EXTD=
EXTT0=
EXTT1=
EXTT2=
EXTT3=
EXTT4=
EXTT5=
EXTT6=
EXTT7=
EXTT8=
EXTT9=
EXTT10=
EXTT11=
EXTT12=
EXTT13=
EXTT14=
EXTT15=
PLAYORDER=
